{
  "extensionsUsed": [
    "KHR_texture_transform"
  ],
  "accessors": [
    {
      "bufferView": 0,
      "componentType": 5126,
      "count": 37750,
      "type": "VEC3",
      "max": [
        0.447313129901886,
        0.38493001461029053,
        0.44320026040077209
      ],
      "min": [
        -0.447313129901886,
        0.0,
        -0.44320026040077209
      ]
    },
    {
      "bufferView": 1,
      "componentType": 5126,
      "count": 37750,
      "type": "VEC3",
      "max": [
        1.0,
        1.0,
        0.99999988079071045
      ],
      "min": [
        -1.0,
        -1.0,
        -0.99999988079071045
      ]
    },
    {
      "bufferView": 2,
      "componentType": 5126,
      "count": 37750,
      "type": "VEC4",
      "max": [
        0.99999594688415527,
        1.0,
        0.999991774559021,
        1.0
      ],
      "min": [
        -0.99999594688415527,
        0.0,
        -0.999991774559021,
        -1.0
      ]
    },
    {
      "bufferView": 3,
      "componentType": 5126,
      "count": 37750,
      "type": "VEC2",
      "max": [
        0.99853515625,
        0.99853515625
      ],
      "min": [
        0.0,
        0.0
      ]
    },
    {
      "bufferView": 4,
      "componentType": 5125,
      "count": 185280,
      "type": "SCALAR",
      "max": [
        37749.0
      ],
      "min": [
        0.0
      ]
    }
  ],
  "asset": {
    "generator": "Plattar UnityGLTF (2020.3.19f1)",
    "version": "2.0"
  },
  "buffers": [
    {
      "uri": "3dmodel.bin",
      "byteLength": 2553120
    }
  ],
  "bufferViews": [
    {
      "buffer": 0,
      "byteLength": 453000
    },
    {
      "buffer": 0,
      "byteOffset": 453000,
      "byteLength": 453000
    },
    {
      "buffer": 0,
      "byteOffset": 906000,
      "byteLength": 604000
    },
    {
      "buffer": 0,
      "byteOffset": 1510000,
      "byteLength": 302000
    },
    {
      "buffer": 0,
      "byteOffset": 1812000,
      "byteLength": 741120
    }
  ],
  "images": [
    {
      "uri": "normal.png",
      "name": "normal"
    },
    {
      "uri": "diffuse.png",
      "name": "diffuse"
    }
  ],
  "materials": [
    {
      "pbrMetallicRoughness": {
        "baseColorTexture": {
          "index": 1,
          "extensions": {
            "KHR_texture_transform": {
              "scale": [
                3.0,
                3.0
              ]
            }
          }
        },
        "metallicFactor": 0.0,
        "roughnessFactor": 0.5
      },
      "normalTexture": {
        "index": 0,
        "extensions": {
          "KHR_texture_transform": {
            "scale": [
              3.0,
              3.0
            ]
          }
        }
      },
      "name": "Concrete pattern 19"
    }
  ],
  "meshes": [
    {
      "primitives": [
        {
          "attributes": {
            "POSITION": 0,
            "NORMAL": 1,
            "TANGENT": 2,
            "TEXCOORD_0": 3
          },
          "indices": 4,
          "material": 0
        }
      ],
      "name": "Default"
    }
  ],
  "nodes": [
    {
      "children": [
        1
      ],
      "rotation": [
        0.0,
        0.0,
        0.0,
        -1.0
      ],
      "scale": [
        0.3,
        0.3,
        0.3
      ],
      "translation": [
        -0.0102000087,
        -0.00173061341,
        0.08060001
      ],
      "name": "3dmodel"
    },
    {
      "mesh": 0,
      "rotation": [
        0.0,
        0.0,
        0.0,
        -1.0
      ],
      "name": "Default"
    }
  ],
  "samplers": [
    {
      "minFilter": 9729
    },
    {
      "minFilter": 9987
    }
  ],
  "scene": 0,
  "scenes": [
    {
      "nodes": [
        0
      ],
      "name": "3dmodel"
    }
  ],
  "textures": [
    {
      "sampler": 0,
      "source": 0,
      "name": "normal"
    },
    {
      "sampler": 1,
      "source": 1,
      "name": "diffuse"
    }
  ]
}