{
  "accessors": [
    {
      "bufferView": 0,
      "componentType": 5126,
      "count": 37750,
      "type": "VEC3",
      "max": [
        0.447313129901886,
        0.38493001461029053,
        0.44320026040077209
      ],
      "min": [
        -0.447313129901886,
        0.0,
        -0.44320026040077209
      ]
    },
    {
      "bufferView": 1,
      "componentType": 5126,
      "count": 37750,
      "type": "VEC3",
      "max": [
        1.0,
        1.0,
        0.99999988079071045
      ],
      "min": [
        -1.0,
        -1.0,
        -0.99999988079071045
      ]
    },
    {
      "bufferView": 2,
      "componentType": 5126,
      "count": 37750,
      "type": "VEC4",
      "max": [
        0.99999594688415527,
        1.0,
        0.999991774559021,
        1.0
      ],
      "min": [
        -0.99999594688415527,
        0.0,
        -0.999991774559021,
        -1.0
      ]
    },
    {
      "bufferView": 3,
      "componentType": 5126,
      "count": 37750,
      "type": "VEC2",
      "max": [
        0.99853515625,
        1.0
      ],
      "min": [
        0.0,
        0.00146484375
      ]
    },
    {
      "bufferView": 4,
      "componentType": 5123,
      "count": 185280,
      "type": "SCALAR",
      "max": [
        37749.0
      ],
      "min": [
        0.0
      ]
    }
  ],
  "asset": {
    "version": "2.0"
  },
  "buffers": [
    {
      "uri": "3dmodel.bin",
      "byteLength": 2182560
    }
  ],
  "bufferViews": [
    {
      "buffer": 0,
      "byteLength": 453000
    },
    {
      "buffer": 0,
      "byteOffset": 453000,
      "byteLength": 453000
    },
    {
      "buffer": 0,
      "byteOffset": 906000,
      "byteLength": 604000
    },
    {
      "buffer": 0,
      "byteOffset": 1510000,
      "byteLength": 302000
    },
    {
      "buffer": 0,
      "byteOffset": 1812000,
      "byteLength": 370560
    }
  ],
  "materials": [
    {
      "pbrMetallicRoughness": {
        "baseColorFactor": [
          0.4716981,
          0.40316838,
          0.40316838,
          1.0
        ],
        "metallicFactor": 0.0
      },
      "name": "White"
    }
  ],
  "meshes": [
    {
      "primitives": [
        {
          "attributes": {
            "POSITION": 0,
            "NORMAL": 1,
            "TANGENT": 2,
            "TEXCOORD_0": 3
          },
          "indices": 4,
          "material": 0
        }
      ],
      "name": "3dmodel"
    }
  ],
  "nodes": [
    {
      "mesh": 0,
      "rotation": [
        0.0,
        0.0,
        0.0,
        -1.0
      ],
      "scale": [
        1.1,
        1.1,
        1.1
      ],
      "translation": [
        0.615999937,
        -0.2457687,
        0.942
      ],
      "name": "3dmodel"
    }
  ],
  "scene": 0,
  "scenes": [
    {
      "nodes": [
        0
      ],
      "name": "3dmodel"
    }
  ]
}