{
  "accessors": [
    {
      "bufferView": 0,
      "componentType": 5126,
      "count": 8886,
      "type": "VEC3",
      "max": [
        0.041344694793224335,
        0.045362252742052078,
        0.030159888789057732
      ],
      "min": [
        -0.034878313541412354,
        0.0,
        -0.044116459786891937
      ]
    },
    {
      "bufferView": 1,
      "componentType": 5126,
      "count": 8886,
      "type": "VEC3",
      "max": [
        1.0,
        1.0,
        1.0
      ],
      "min": [
        -1.0,
        -1.0,
        -1.0
      ]
    },
    {
      "bufferView": 2,
      "componentType": 5126,
      "count": 8886,
      "type": "VEC4",
      "max": [
        1.0,
        0.11996031552553177,
        1.0,
        1.0
      ],
      "min": [
        -1.0,
        -1.0,
        -1.0,
        -1.0
      ]
    },
    {
      "bufferView": 3,
      "componentType": 5126,
      "count": 8886,
      "type": "VEC2",
      "max": [
        1.0,
        1.0
      ],
      "min": [
        0.0,
        0.0
      ]
    },
    {
      "bufferView": 4,
      "componentType": 5125,
      "count": 30210,
      "type": "SCALAR",
      "max": [
        8885.0
      ],
      "min": [
        0.0
      ]
    }
  ],
  "asset": {
    "generator": "Plattar UnityGLTF (2020.3.19f1)",
    "version": "2.0"
  },
  "buffers": [
    {
      "uri": "3dmodel.bin",
      "byteLength": 547368
    }
  ],
  "bufferViews": [
    {
      "buffer": 0,
      "byteLength": 106632
    },
    {
      "buffer": 0,
      "byteOffset": 106632,
      "byteLength": 106632
    },
    {
      "buffer": 0,
      "byteOffset": 213264,
      "byteLength": 142176
    },
    {
      "buffer": 0,
      "byteOffset": 355440,
      "byteLength": 71088
    },
    {
      "buffer": 0,
      "byteOffset": 426528,
      "byteLength": 120840
    }
  ],
  "images": [
    {
      "uri": "BrushedIron_Normal.png",
      "name": "BrushedIron_Normal"
    }
  ],
  "materials": [
    {
      "normalTexture": {
        "index": 0
      },
      "alphaMode": "BLEND",
      "name": "BrushedIron_StandardShader"
    }
  ],
  "meshes": [
    {
      "primitives": [
        {
          "attributes": {
            "POSITION": 0,
            "NORMAL": 1,
            "TANGENT": 2,
            "TEXCOORD_0": 3
          },
          "indices": 4,
          "material": 0
        }
      ],
      "name": "default"
    }
  ],
  "nodes": [
    {
      "children": [
        1
      ],
      "rotation": [
        0.0,
        0.7071068,
        0.0,
        -0.7071068
      ],
      "scale": [
        2.00000048,
        1.0,
        2.00000048
      ],
      "translation": [
        -0.004180356,
        0.0112999994,
        0.0188616887
      ],
      "name": "3dmodel"
    },
    {
      "mesh": 0,
      "rotation": [
        0.0,
        0.0,
        0.0,
        -1.0
      ],
      "translation": [
        0.0,
        -0.0148,
        -0.003
      ],
      "name": "default"
    }
  ],
  "samplers": [
    {
      "minFilter": 9729
    }
  ],
  "scene": 0,
  "scenes": [
    {
      "nodes": [
        0
      ],
      "name": "3dmodel"
    }
  ],
  "textures": [
    {
      "sampler": 0,
      "source": 0,
      "name": "BrushedIron_Normal"
    }
  ]
}