{
  "accessors": [
    {
      "bufferView": 0,
      "componentType": 5126,
      "count": 7076,
      "type": "VEC3",
      "max": [
        142.52816772460938,
        105.0,
        126.82982635498047
      ],
      "min": [
        -111.872802734375,
        0.0,
        -147.25274658203125
      ]
    },
    {
      "bufferView": 1,
      "componentType": 5126,
      "count": 7076,
      "type": "VEC3",
      "max": [
        0.99998819828033447,
        0.99998259544372559,
        1.0
      ],
      "min": [
        -0.99998819828033447,
        -0.99998259544372559,
        -1.0
      ]
    },
    {
      "bufferView": 2,
      "componentType": 5126,
      "count": 7076,
      "type": "VEC4",
      "max": [
        1.0,
        1.0,
        0.99995565414428711,
        1.0
      ],
      "min": [
        -1.0,
        -1.0,
        -0.99995803833007813,
        -1.0
      ]
    },
    {
      "bufferView": 3,
      "componentType": 5126,
      "count": 7076,
      "type": "VEC2",
      "max": [
        0.99853515625,
        1.0
      ],
      "min": [
        0.0,
        0.0027422904968261719
      ]
    },
    {
      "bufferView": 4,
      "componentType": 5123,
      "count": 21228,
      "type": "SCALAR",
      "max": [
        7075.0
      ],
      "min": [
        0.0
      ]
    }
  ],
  "asset": {
    "version": "2.0"
  },
  "buffers": [
    {
      "uri": "Tornado.bin",
      "byteLength": 382104
    }
  ],
  "bufferViews": [
    {
      "buffer": 0,
      "byteLength": 84912
    },
    {
      "buffer": 0,
      "byteOffset": 84912,
      "byteLength": 84912
    },
    {
      "buffer": 0,
      "byteOffset": 169824,
      "byteLength": 113216
    },
    {
      "buffer": 0,
      "byteOffset": 283040,
      "byteLength": 56608
    },
    {
      "buffer": 0,
      "byteOffset": 339648,
      "byteLength": 42456
    }
  ],
  "materials": [
    {
      "pbrMetallicRoughness": {
        "baseColorFactor": [
          0.6745098,
          0.7169812,
          0.721568644,
          0.5882353
        ],
        "metallicFactor": 0.0,
        "roughnessFactor": 0.53600001335144043
      },
      "alphaMode": "BLEND",
      "name": "cloud01"
    }
  ],
  "meshes": [
    {
      "primitives": [
        {
          "attributes": {
            "POSITION": 0,
            "NORMAL": 1,
            "TANGENT": 2,
            "TEXCOORD_0": 3
          },
          "indices": 4,
          "material": 0
        }
      ],
      "name": "Tornado"
    }
  ],
  "nodes": [
    {
      "mesh": 0,
      "rotation": [
        0.0,
        0.0,
        0.0,
        -1.0
      ],
      "scale": [
        0.006,
        0.01,
        0.006
      ],
      "translation": [
        0.615999937,
        -0.06,
        0.942
      ],
      "name": "Tornado"
    }
  ],
  "scene": 0,
  "scenes": [
    {
      "nodes": [
        0
      ],
      "name": "Tornado"
    }
  ]
}