{
  "extensionsUsed": [
    "KHR_texture_transform"
  ],
  "accessors": [
    {
      "bufferView": 0,
      "componentType": 5126,
      "count": 37750,
      "type": "VEC3",
      "max": [
        0.447313129901886,
        0.38493001461029053,
        0.44320026040077209
      ],
      "min": [
        -0.447313129901886,
        0.0,
        -0.44320026040077209
      ]
    },
    {
      "bufferView": 1,
      "componentType": 5126,
      "count": 37750,
      "type": "VEC3",
      "max": [
        1.0,
        1.0,
        0.99999988079071045
      ],
      "min": [
        -1.0,
        -1.0,
        -0.99999988079071045
      ]
    },
    {
      "bufferView": 2,
      "componentType": 5126,
      "count": 37750,
      "type": "VEC4",
      "max": [
        0.99999594688415527,
        1.0,
        0.999991774559021,
        1.0
      ],
      "min": [
        -0.99999594688415527,
        0.0,
        -0.999991774559021,
        -1.0
      ]
    },
    {
      "bufferView": 3,
      "componentType": 5126,
      "count": 37750,
      "type": "VEC2",
      "max": [
        0.99853515625,
        1.0
      ],
      "min": [
        0.0,
        0.00146484375
      ]
    },
    {
      "bufferView": 4,
      "componentType": 5123,
      "count": 185280,
      "type": "SCALAR",
      "max": [
        37749.0
      ],
      "min": [
        0.0
      ]
    },
    {
      "bufferView": 5,
      "componentType": 5126,
      "count": 7076,
      "type": "VEC3",
      "max": [
        142.52816772460938,
        105.0,
        126.82982635498047
      ],
      "min": [
        -111.872802734375,
        0.0,
        -147.25274658203125
      ]
    },
    {
      "bufferView": 6,
      "componentType": 5126,
      "count": 7076,
      "type": "VEC3",
      "max": [
        0.99998819828033447,
        0.99998259544372559,
        1.0
      ],
      "min": [
        -0.99998819828033447,
        -0.99998259544372559,
        -1.0
      ]
    },
    {
      "bufferView": 7,
      "componentType": 5126,
      "count": 7076,
      "type": "VEC4",
      "max": [
        1.0,
        1.0,
        0.99995565414428711,
        1.0
      ],
      "min": [
        -1.0,
        -1.0,
        -0.99995803833007813,
        -1.0
      ]
    },
    {
      "bufferView": 8,
      "componentType": 5126,
      "count": 7076,
      "type": "VEC2",
      "max": [
        0.99853515625,
        1.0
      ],
      "min": [
        0.0,
        0.0027422904968261719
      ]
    },
    {
      "bufferView": 9,
      "componentType": 5123,
      "count": 21228,
      "type": "SCALAR",
      "max": [
        7075.0
      ],
      "min": [
        0.0
      ]
    },
    {
      "bufferView": 10,
      "componentType": 5126,
      "count": 941,
      "type": "VEC3",
      "max": [
        26.448785781860352,
        18.545246124267578,
        15.805278778076172
      ],
      "min": [
        -27.086692810058594,
        -15.3102445602417,
        -15.927352905273438
      ]
    },
    {
      "bufferView": 11,
      "componentType": 5126,
      "count": 941,
      "type": "VEC3",
      "max": [
        0.99294310808181763,
        0.99937206506729126,
        0.99811649322509766
      ],
      "min": [
        -0.97606557607650757,
        -0.991666853427887,
        -0.99141943454742432
      ]
    },
    {
      "bufferView": 12,
      "componentType": 5126,
      "count": 941,
      "type": "VEC4",
      "max": [
        1.0,
        0.0,
        0.0,
        1.0
      ],
      "min": [
        1.0,
        0.0,
        0.0,
        1.0
      ]
    },
    {
      "bufferView": 13,
      "componentType": 5123,
      "count": 996,
      "type": "SCALAR",
      "max": [
        940.0
      ],
      "min": [
        0.0
      ]
    },
    {
      "bufferView": 14,
      "componentType": 5126,
      "count": 981,
      "type": "VEC3",
      "max": [
        26.060670852661133,
        18.8322696685791,
        17.540229797363281
      ],
      "min": [
        -29.532615661621094,
        -17.214010238647461,
        -16.490467071533203
      ]
    },
    {
      "bufferView": 15,
      "componentType": 5126,
      "count": 981,
      "type": "VEC3",
      "max": [
        0.98881733417510986,
        0.97970986366271973,
        0.99732261896133423
      ],
      "min": [
        -0.99362754821777344,
        -0.99191123247146606,
        -0.99884146451950073
      ]
    },
    {
      "bufferView": 16,
      "componentType": 5126,
      "count": 981,
      "type": "VEC4",
      "max": [
        1.0,
        0.0,
        0.0,
        1.0
      ],
      "min": [
        1.0,
        0.0,
        0.0,
        1.0
      ]
    },
    {
      "bufferView": 17,
      "componentType": 5123,
      "count": 1062,
      "type": "SCALAR",
      "max": [
        980.0
      ],
      "min": [
        0.0
      ]
    }
  ],
  "asset": {
    "version": "2.0"
  },
  "buffers": [
    {
      "uri": "SamuelStockli.bin",
      "byteLength": 2645660
    }
  ],
  "bufferViews": [
    {
      "buffer": 0,
      "byteLength": 453000
    },
    {
      "buffer": 0,
      "byteOffset": 453000,
      "byteLength": 453000
    },
    {
      "buffer": 0,
      "byteOffset": 906000,
      "byteLength": 604000
    },
    {
      "buffer": 0,
      "byteOffset": 1510000,
      "byteLength": 302000
    },
    {
      "buffer": 0,
      "byteOffset": 1812000,
      "byteLength": 370560
    },
    {
      "buffer": 0,
      "byteOffset": 2182560,
      "byteLength": 84912
    },
    {
      "buffer": 0,
      "byteOffset": 2267472,
      "byteLength": 84912
    },
    {
      "buffer": 0,
      "byteOffset": 2352384,
      "byteLength": 113216
    },
    {
      "buffer": 0,
      "byteOffset": 2465600,
      "byteLength": 56608
    },
    {
      "buffer": 0,
      "byteOffset": 2522208,
      "byteLength": 42456
    },
    {
      "buffer": 0,
      "byteOffset": 2564664,
      "byteLength": 11292
    },
    {
      "buffer": 0,
      "byteOffset": 2575956,
      "byteLength": 11292
    },
    {
      "buffer": 0,
      "byteOffset": 2587248,
      "byteLength": 15056
    },
    {
      "buffer": 0,
      "byteOffset": 2602304,
      "byteLength": 1992
    },
    {
      "buffer": 0,
      "byteOffset": 2604296,
      "byteLength": 11772
    },
    {
      "buffer": 0,
      "byteOffset": 2616068,
      "byteLength": 11772
    },
    {
      "buffer": 0,
      "byteOffset": 2627840,
      "byteLength": 15696
    },
    {
      "buffer": 0,
      "byteOffset": 2643536,
      "byteLength": 2124
    }
  ],
  "images": [
    {
      "uri": "normal.png",
      "name": "normal"
    },
    {
      "uri": "diffuse.png",
      "name": "diffuse"
    }
  ],
  "materials": [
    {
      "pbrMetallicRoughness": {
        "baseColorFactor": [
          0.4716981,
          0.40316838,
          0.40316838,
          1.0
        ],
        "metallicFactor": 0.0
      },
      "name": "White"
    },
    {
      "pbrMetallicRoughness": {
        "baseColorFactor": [
          0.6745098,
          0.7169812,
          0.721568644,
          0.5882353
        ],
        "metallicFactor": 0.0,
        "roughnessFactor": 0.53600001335144043
      },
      "alphaMode": "BLEND",
      "name": "cloud01"
    },
    {
      "pbrMetallicRoughness": {
        "baseColorTexture": {
          "index": 1,
          "extensions": {
            "KHR_texture_transform": {
              "scale": [
                3.0,
                3.0
              ]
            }
          }
        },
        "metallicFactor": 0.0,
        "roughnessFactor": 0.5
      },
      "normalTexture": {
        "index": 0,
        "extensions": {
          "KHR_texture_transform": {
            "scale": [
              3.0,
              3.0
            ]
          }
        }
      },
      "name": "Concrete pattern 19"
    }
  ],
  "meshes": [
    {
      "primitives": [
        {
          "attributes": {
            "POSITION": 0,
            "NORMAL": 1,
            "TANGENT": 2,
            "TEXCOORD_0": 3
          },
          "indices": 4,
          "material": 0
        }
      ],
      "name": "3dmodel"
    },
    {
      "primitives": [
        {
          "attributes": {
            "POSITION": 5,
            "NORMAL": 6,
            "TANGENT": 7,
            "TEXCOORD_0": 8
          },
          "indices": 9,
          "material": 1
        }
      ],
      "name": "Tornado"
    },
    {
      "primitives": [
        {
          "attributes": {
            "POSITION": 0,
            "NORMAL": 1,
            "TANGENT": 2,
            "TEXCOORD_0": 3
          },
          "indices": 4,
          "material": 2
        }
      ],
      "name": "Raum - Folgen VR Model V1"
    },
    {
      "primitives": [
        {
          "attributes": {
            "POSITION": 10,
            "NORMAL": 11,
            "TANGENT": 12
          },
          "indices": 13,
          "material": 1
        }
      ],
      "name": "Cloud_Cumulus (3)"
    },
    {
      "primitives": [
        {
          "attributes": {
            "POSITION": 14,
            "NORMAL": 15,
            "TANGENT": 16
          },
          "indices": 17,
          "material": 1
        }
      ],
      "name": "Cloud_Cumulus_Med"
    }
  ],
  "nodes": [
    {
      "children": [
        1,
        2,
        3
      ],
      "rotation": [
        0.0,
        0.0,
        0.0,
        -1.0
      ],
      "scale": [
        0.3,
        0.3,
        0.3
      ],
      "name": "SamuelStockli"
    },
    {
      "mesh": 0,
      "rotation": [
        0.0,
        0.0,
        0.0,
        -1.0
      ],
      "scale": [
        1.1,
        1.1,
        1.1
      ],
      "name": "3dmodel"
    },
    {
      "mesh": 1,
      "rotation": [
        0.0,
        0.0,
        0.0,
        -1.0
      ],
      "scale": [
        0.006,
        0.01,
        0.006
      ],
      "name": "Tornado"
    },
    {
      "children": [
        4,
        10,
        12,
        13,
        16,
        19,
        20,
        21,
        23,
        26,
        29
      ],
      "rotation": [
        0.0,
        0.0,
        0.0,
        -1.0
      ],
      "name": "Clouds"
    },
    {
      "children": [
        5,
        6,
        9
      ],
      "rotation": [
        0.0,
        0.0,
        0.0,
        -1.0
      ],
      "translation": [
        0.26,
        0.0,
        -0.5
      ],
      "name": "Building 1 (1)"
    },
    {
      "mesh": 2,
      "rotation": [
        0.0,
        0.0,
        0.0,
        -1.0
      ],
      "name": "Raum - Folgen VR Model V1"
    },
    {
      "children": [
        7
      ],
      "rotation": [
        0.0,
        0.0,
        0.0,
        -1.0
      ],
      "translation": [
        0.1,
        0.25,
        0.0
      ],
      "name": "Spiral_01.1 Tornado"
    },
    {
      "children": [
        8
      ],
      "rotation": [
        0.0,
        0.0,
        0.0,
        -1.0
      ],
      "translation": [
        -0.28,
        0.391,
        -0.39
      ],
      "name": "particle master"
    },
    {
      "rotation": [
        0.0,
        0.0,
        0.0,
        -1.0
      ],
      "scale": [
        1.2247,
        1.2247,
        1.2247
      ],
      "translation": [
        -1.02,
        -0.1,
        1.18
      ],
      "name": "particle glow slave birth trail"
    },
    {
      "rotation": [
        0.0,
        0.0,
        0.0,
        -1.0
      ],
      "scale": [
        0.006,
        0.009588,
        0.006
      ],
      "translation": [
        0.0,
        0.391,
        0.0
      ],
      "name": "TornadoModel"
    },
    {
      "children": [
        11
      ],
      "rotation": [
        0.0,
        0.0,
        0.0,
        -1.0
      ],
      "translation": [
        -0.7440753,
        1.08,
        -1.87999988
      ],
      "name": "sky cloud 1"
    },
    {
      "mesh": 3,
      "rotation": [
        0.0,
        0.0,
        0.0,
        -1.0
      ],
      "scale": [
        0.007,
        0.007,
        0.015648501
      ],
      "translation": [
        0.0,
        0.744,
        0.0
      ],
      "name": "Cloud_Cumulus (3)"
    },
    {
      "rotation": [
        0.0,
        0.0,
        0.0,
        -1.0
      ],
      "translation": [
        1.11999989,
        0.27,
        -1.65999985
      ],
      "name": "sky cloud 2"
    },
    {
      "children": [
        14,
        15
      ],
      "rotation": [
        0.0,
        0.0,
        0.0,
        -1.0
      ],
      "translation": [
        1.72,
        0.6,
        0.8000002
      ],
      "name": "sky cloud 3"
    },
    {
      "mesh": 4,
      "rotation": [
        0.0,
        -0.155456781,
        0.0,
        -0.987842739
      ],
      "scale": [
        0.007,
        0.007,
        0.007
      ],
      "translation": [
        0.0,
        0.4,
        0.0
      ],
      "name": "Cloud_Cumulus_Med"
    },
    {
      "mesh": 4,
      "rotation": [
        0.0,
        -0.155456781,
        0.0,
        -0.987842739
      ],
      "scale": [
        0.007,
        0.007,
        0.007
      ],
      "translation": [
        -0.8352509,
        0.100000113,
        -0.8976389
      ],
      "name": "Cloud_Cumulus_Med (1)"
    },
    {
      "children": [
        17,
        18
      ],
      "rotation": [
        0.0,
        0.0,
        -0.5735764,
        -0.8191521
      ],
      "translation": [
        1.38999987,
        0.17,
        -0.399999619
      ],
      "name": "sky cloud 2 (1)"
    },
    {
      "mesh": 3,
      "rotation": [
        0.0,
        0.0,
        0.0,
        -1.0
      ],
      "scale": [
        0.00658000028,
        0.00658000028,
        0.00658000028
      ],
      "translation": [
        1.639,
        0.504,
        1.634
      ],
      "name": "Cloud_Cumulus"
    },
    {
      "mesh": 3,
      "rotation": [
        0.0,
        0.0,
        0.0,
        -1.0
      ],
      "scale": [
        0.00658000028,
        0.00658000028,
        0.00658000028
      ],
      "translation": [
        1.07,
        1.19,
        0.74
      ],
      "name": "Cloud_Cumulus (1)"
    },
    {
      "rotation": [
        0.0,
        0.0,
        -0.5735764,
        -0.8191521
      ],
      "translation": [
        0.710000038,
        0.6,
        2.06000042
      ],
      "name": "sky cloud 3 (1)"
    },
    {
      "rotation": [
        0.0,
        0.335550219,
        0.0,
        -0.9420223
      ],
      "translation": [
        2.122,
        0.745,
        -0.9499998
      ],
      "name": "sky cloud 1 (2)"
    },
    {
      "children": [
        22
      ],
      "rotation": [
        0.178637549,
        0.125083357,
        -0.5597714,
        -0.799436569
      ],
      "translation": [
        0.399999857,
        0.53,
        -0.399999619
      ],
      "name": "sky cloud 2 (2)"
    },
    {
      "mesh": 3,
      "rotation": [
        0.0,
        0.0,
        0.0,
        -1.0
      ],
      "scale": [
        0.00658000028,
        0.00658000028,
        0.00658000028
      ],
      "translation": [
        1.639,
        0.504,
        1.634
      ],
      "name": "Cloud_Cumulus"
    },
    {
      "children": [
        24,
        25
      ],
      "rotation": [
        0.0,
        -0.7386146,
        0.0,
        -0.674127936
      ],
      "translation": [
        -0.8800001,
        1.27,
        0.8000002
      ],
      "name": "sky cloud 3 (2)"
    },
    {
      "mesh": 4,
      "rotation": [
        0.0,
        -0.155456781,
        0.0,
        -0.987842739
      ],
      "scale": [
        0.007,
        0.007,
        0.007
      ],
      "translation": [
        0.0,
        0.4,
        0.0
      ],
      "name": "Cloud_Cumulus_Med"
    },
    {
      "mesh": 4,
      "rotation": [
        0.0,
        -0.155456781,
        0.0,
        -0.987842739
      ],
      "scale": [
        0.007,
        0.007,
        0.007
      ],
      "translation": [
        0.97,
        0.1,
        -0.75
      ],
      "name": "Cloud_Cumulus_Med (2)"
    },
    {
      "children": [
        27,
        28
      ],
      "rotation": [
        0.0,
        -0.3477472,
        0.0,
        -0.937588334
      ],
      "translation": [
        -0.9200001,
        0.6,
        2.06000042
      ],
      "name": "sky cloud 3 (3)"
    },
    {
      "mesh": 4,
      "rotation": [
        0.0,
        -0.155456781,
        0.0,
        -0.987842739
      ],
      "scale": [
        0.007,
        0.007,
        0.007
      ],
      "translation": [
        0.0,
        0.4,
        0.0
      ],
      "name": "Cloud_Cumulus_Med"
    },
    {
      "mesh": 4,
      "rotation": [
        0.0,
        -0.155456781,
        0.0,
        -0.987842739
      ],
      "scale": [
        0.007,
        0.007,
        0.007
      ],
      "translation": [
        -0.05,
        0.1,
        -1.23
      ],
      "name": "Cloud_Cumulus_Med (3)"
    },
    {
      "children": [
        30,
        31
      ],
      "rotation": [
        0.0,
        0.0,
        0.0,
        -1.0
      ],
      "translation": [
        2.16999984,
        1.08,
        2.73
      ],
      "name": "sky cloud 1 (4)"
    },
    {
      "mesh": 3,
      "rotation": [
        0.0,
        0.0,
        0.0,
        -1.0
      ],
      "scale": [
        0.007,
        0.007,
        0.015648501
      ],
      "translation": [
        0.0,
        0.744,
        0.0
      ],
      "name": "Cloud_Cumulus (3)"
    },
    {
      "mesh": 3,
      "rotation": [
        0.0,
        0.0,
        0.0,
        -1.0
      ],
      "scale": [
        0.007,
        0.007,
        0.015648501
      ],
      "translation": [
        -0.8352509,
        0.444000125,
        -0.8976389
      ],
      "name": "Cloud_Cumulus (4)"
    }
  ],
  "samplers": [
    {
      "minFilter": 9987
    }
  ],
  "scene": 0,
  "scenes": [
    {
      "nodes": [
        0
      ],
      "name": "SamuelStockli"
    }
  ],
  "textures": [
    {
      "sampler": 0,
      "source": 0,
      "name": "normal"
    },
    {
      "sampler": 0,
      "source": 1,
      "name": "diffuse"
    }
  ]
}