{
  "accessors": [
    {
      "bufferView": 0,
      "componentType": 5126,
      "count": 400896,
      "type": "VEC3",
      "max": [
        40.411361694335938,
        2.7160067558288574,
        39.1694450378418
      ],
      "min": [
        -39.539291381835938,
        -0.26754307746887207,
        -39.810161590576172
      ]
    },
    {
      "bufferView": 1,
      "componentType": 5126,
      "count": 400896,
      "type": "VEC3",
      "max": [
        1.0,
        0.70710676908493042,
        1.0
      ],
      "min": [
        -1.0,
        -0.70710676908493042,
        -1.0
      ]
    },
    {
      "bufferView": 2,
      "componentType": 5126,
      "count": 400896,
      "type": "VEC4",
      "max": [
        1.0,
        0.707109808921814,
        1.0,
        -1.0
      ],
      "min": [
        -1.0,
        -0.70710998773574829,
        -1.0,
        -1.0
      ]
    },
    {
      "bufferView": 3,
      "componentType": 5126,
      "count": 400896,
      "type": "VEC2",
      "max": [
        1.0,
        1.0
      ],
      "min": [
        0.0,
        0.0
      ]
    },
    {
      "bufferView": 4,
      "componentType": 5125,
      "count": 1347840,
      "type": "SCALAR",
      "max": [
        400895.0
      ],
      "min": [
        0.0
      ]
    }
  ],
  "asset": {
    "generator": "Plattar UnityGLTF (2020.3.19f1)",
    "version": "2.0"
  },
  "buffers": [
    {
      "uri": "environment_j2.bin",
      "byteLength": 24634368
    }
  ],
  "bufferViews": [
    {
      "buffer": 0,
      "byteLength": 4810752
    },
    {
      "buffer": 0,
      "byteOffset": 4810752,
      "byteLength": 4810752
    },
    {
      "buffer": 0,
      "byteOffset": 9621504,
      "byteLength": 6414336
    },
    {
      "buffer": 0,
      "byteOffset": 16035840,
      "byteLength": 3207168
    },
    {
      "buffer": 0,
      "byteOffset": 19243008,
      "byteLength": 5391360
    }
  ],
  "materials": [
    {
      "pbrMetallicRoughness": {
        "baseColorFactor": [
          0.169811308,
          0.169010311,
          0.169010311,
          1.0
        ],
        "metallicFactor": 0.28499999642372131,
        "roughnessFactor": 0.53200000524520874
      },
      "name": "j_env01"
    }
  ],
  "meshes": [
    {
      "primitives": [
        {
          "attributes": {
            "POSITION": 0,
            "NORMAL": 1,
            "TANGENT": 2,
            "TEXCOORD_0": 3
          },
          "indices": 4,
          "material": 0
        }
      ],
      "name": "environment_j2"
    }
  ],
  "nodes": [
    {
      "mesh": 0,
      "rotation": [
        0.0,
        0.0,
        0.0,
        -1.0
      ],
      "scale": [
        0.0141251227,
        0.0124709215,
        0.0141251227
      ],
      "name": "environment_j2"
    }
  ],
  "scene": 0,
  "scenes": [
    {
      "nodes": [
        0
      ],
      "name": "environment_j2"
    }
  ]
}