{
  "accessors": [
    {
      "bufferView": 0,
      "componentType": 5126,
      "count": 573,
      "type": "VEC3",
      "max": [
        7.3512692451477051,
        4.6516027450561523,
        19.72154426574707
      ],
      "min": [
        -7.3512721061706543,
        -4.9396553039550781,
        -19.721538543701172
      ]
    },
    {
      "bufferView": 1,
      "componentType": 5126,
      "count": 573,
      "type": "VEC3",
      "max": [
        0.9995998740196228,
        0.99941384792327881,
        0.99898332357406616
      ],
      "min": [
        -0.9989008903503418,
        -0.99968814849853516,
        -0.99993300437927246
      ]
    },
    {
      "bufferView": 2,
      "componentType": 5126,
      "count": 573,
      "type": "VEC4",
      "max": [
        0.94016480445861816,
        0.59380483627319336,
        0.999301552772522,
        -1.0
      ],
      "min": [
        -0.97371113300323486,
        -0.80291354656219482,
        -0.99999690055847168,
        -1.0
      ]
    },
    {
      "bufferView": 3,
      "componentType": 5126,
      "count": 573,
      "type": "VEC2",
      "max": [
        0.88102912902832031,
        0.47762137651443481
      ],
      "min": [
        0.8159366250038147,
        0.41650915145874023
      ]
    },
    {
      "bufferView": 4,
      "componentType": 5125,
      "count": 624,
      "type": "SCALAR",
      "max": [
        572.0
      ],
      "min": [
        0.0
      ]
    },
    {
      "bufferView": 5,
      "componentType": 5126,
      "count": 306,
      "type": "VEC3",
      "max": [
        5.0201640129089355,
        3.212552547454834,
        14.656169891357422
      ],
      "min": [
        -5.0201625823974609,
        -3.0174007415771484,
        -14.656182289123535
      ]
    },
    {
      "bufferView": 6,
      "componentType": 5126,
      "count": 306,
      "type": "VEC3",
      "max": [
        0.93820947408676147,
        0.9992641806602478,
        0.93141257762908936
      ],
      "min": [
        -0.99830722808837891,
        -0.99951815605163574,
        -0.96830093860626221
      ]
    },
    {
      "bufferView": 7,
      "componentType": 5126,
      "count": 306,
      "type": "VEC4",
      "max": [
        0.99772590398788452,
        0.86981201171875,
        0.999207079410553,
        -1.0
      ],
      "min": [
        -0.940337061882019,
        -0.90846759080886841,
        -0.999231219291687,
        -1.0
      ]
    },
    {
      "bufferView": 8,
      "componentType": 5126,
      "count": 306,
      "type": "VEC2",
      "max": [
        0.88096404075622559,
        0.47768515348434448
      ],
      "min": [
        0.840428352355957,
        0.43768501281738281
      ]
    },
    {
      "bufferView": 9,
      "componentType": 5125,
      "count": 318,
      "type": "SCALAR",
      "max": [
        305.0
      ],
      "min": [
        0.0
      ]
    },
    {
      "bufferView": 10,
      "componentType": 5126,
      "count": 58,
      "type": "VEC3",
      "max": [
        2.5792784690856934,
        1.8616175651550293,
        4.0488400459289551
      ],
      "min": [
        -2.5792784690856934,
        -1.9595093727111816,
        -4.0488462448120117
      ]
    },
    {
      "bufferView": 11,
      "componentType": 5126,
      "count": 58,
      "type": "VEC3",
      "max": [
        0.94460999965667725,
        0.98044800758361816,
        0.70725315809249878
      ],
      "min": [
        -0.98128247261047363,
        -0.9972149133682251,
        -0.96203625202178955
      ]
    },
    {
      "bufferView": 12,
      "componentType": 5126,
      "count": 58,
      "type": "VEC4",
      "max": [
        0.95201307535171509,
        0.75469851493835449,
        0.81851869821548462,
        -1.0
      ],
      "min": [
        -0.71547085046768188,
        -0.40946537256240845,
        -0.99121057987213135,
        -1.0
      ]
    },
    {
      "bufferView": 13,
      "componentType": 5126,
      "count": 58,
      "type": "VEC2",
      "max": [
        0.86780548095703125,
        0.48170819878578186
      ],
      "min": [
        0.8159366250038147,
        0.46276292204856873
      ]
    },
    {
      "bufferView": 14,
      "componentType": 5125,
      "count": 60,
      "type": "SCALAR",
      "max": [
        57.0
      ],
      "min": [
        0.0
      ]
    }
  ],
  "asset": {
    "generator": "Plattar UnityGLTF (2020.3.19f1)",
    "version": "2.0"
  },
  "buffers": [
    {
      "uri": "clouds.bin",
      "byteLength": 48984
    }
  ],
  "bufferViews": [
    {
      "buffer": 0,
      "byteLength": 6876
    },
    {
      "buffer": 0,
      "byteOffset": 6876,
      "byteLength": 6876
    },
    {
      "buffer": 0,
      "byteOffset": 13752,
      "byteLength": 9168
    },
    {
      "buffer": 0,
      "byteOffset": 22920,
      "byteLength": 4584
    },
    {
      "buffer": 0,
      "byteOffset": 27504,
      "byteLength": 2496
    },
    {
      "buffer": 0,
      "byteOffset": 30000,
      "byteLength": 3672
    },
    {
      "buffer": 0,
      "byteOffset": 33672,
      "byteLength": 3672
    },
    {
      "buffer": 0,
      "byteOffset": 37344,
      "byteLength": 4896
    },
    {
      "buffer": 0,
      "byteOffset": 42240,
      "byteLength": 2448
    },
    {
      "buffer": 0,
      "byteOffset": 44688,
      "byteLength": 1272
    },
    {
      "buffer": 0,
      "byteOffset": 45960,
      "byteLength": 696
    },
    {
      "buffer": 0,
      "byteOffset": 46656,
      "byteLength": 696
    },
    {
      "buffer": 0,
      "byteOffset": 47352,
      "byteLength": 928
    },
    {
      "buffer": 0,
      "byteOffset": 48280,
      "byteLength": 464
    },
    {
      "buffer": 0,
      "byteOffset": 48744,
      "byteLength": 240
    }
  ],
  "materials": [
    {
      "alphaMode": "BLEND",
      "name": "SimpleSky"
    }
  ],
  "meshes": [
    {
      "primitives": [
        {
          "attributes": {
            "POSITION": 0,
            "NORMAL": 1,
            "TANGENT": 2,
            "TEXCOORD_0": 3
          },
          "indices": 4,
          "material": 0
        }
      ],
      "name": "RG_Cloud-01"
    },
    {
      "primitives": [
        {
          "attributes": {
            "POSITION": 5,
            "NORMAL": 6,
            "TANGENT": 7,
            "TEXCOORD_0": 8
          },
          "indices": 9,
          "material": 0
        }
      ],
      "name": "RG_Cloud-03"
    },
    {
      "primitives": [
        {
          "attributes": {
            "POSITION": 10,
            "NORMAL": 11,
            "TANGENT": 12,
            "TEXCOORD_0": 13
          },
          "indices": 14,
          "material": 0
        }
      ],
      "name": "RG_Cloud-05"
    }
  ],
  "nodes": [
    {
      "children": [
        1,
        20,
        39
      ],
      "rotation": [
        0.0,
        0.0,
        0.0,
        -1.00000012
      ],
      "translation": [
        0.159128428,
        0.000632721,
        0.11332202
      ],
      "name": "clouds"
    },
    {
      "children": [
        2,
        3,
        4,
        5,
        6,
        7,
        8,
        9,
        10,
        11,
        12,
        13,
        14,
        15,
        16,
        17,
        18,
        19
      ],
      "mesh": 0,
      "rotation": [
        1.545431E-08,
        0.7071068,
        1.545431E-08,
        -0.7071068
      ],
      "scale": [
        0.009999999,
        0.01,
        0.009999999
      ],
      "translation": [
        -0.6893288,
        0.262867272,
        -0.408122241
      ],
      "name": "RG_Cloud-01"
    },
    {
      "mesh": 1,
      "rotation": [
        0.0,
        0.0,
        0.0,
        -1.0
      ],
      "translation": [
        -9.12,
        -8.48,
        -16.22
      ],
      "name": "RG_Cloud-03"
    },
    {
      "mesh": 2,
      "rotation": [
        0.0,
        0.0,
        0.0,
        -1.0
      ],
      "translation": [
        -29.06,
        -2.0,
        -33.2699966
      ],
      "name": "RG_Cloud-05"
    },
    {
      "mesh": 1,
      "rotation": [
        0.0,
        0.0,
        0.0,
        -1.0
      ],
      "translation": [
        11.02,
        -7.7,
        -18.0
      ],
      "name": "RG_Cloud-03 (1)"
    },
    {
      "mesh": 2,
      "rotation": [
        0.0,
        0.0,
        0.0,
        -1.0
      ],
      "translation": [
        4.86,
        -10.12,
        5.08
      ],
      "name": "RG_Cloud-05 (1)"
    },
    {
      "mesh": 2,
      "rotation": [
        0.0,
        0.0,
        0.0,
        -1.0
      ],
      "translation": [
        -5.46,
        -10.12,
        -26.43
      ],
      "name": "RG_Cloud-05 (2)"
    },
    {
      "mesh": 2,
      "rotation": [
        0.0,
        0.0,
        0.0,
        -1.0
      ],
      "translation": [
        0.76,
        -10.12,
        -22.25
      ],
      "name": "RG_Cloud-05 (3)"
    },
    {
      "mesh": 2,
      "rotation": [
        0.0,
        0.0,
        0.0,
        -1.0
      ],
      "translation": [
        -7.74,
        -10.12,
        -22.25
      ],
      "name": "RG_Cloud-05 (4)"
    },
    {
      "mesh": 2,
      "rotation": [
        0.0,
        0.0,
        0.0,
        -1.0
      ],
      "translation": [
        4.2,
        -10.12,
        -6.79
      ],
      "name": "RG_Cloud-05 (5)"
    },
    {
      "mesh": 1,
      "rotation": [
        0.0,
        0.0,
        0.0,
        -1.0
      ],
      "translation": [
        -65.85,
        16.1,
        -18.0
      ],
      "name": "RG_Cloud-03 (2)"
    },
    {
      "mesh": 2,
      "rotation": [
        0.0,
        0.0,
        0.0,
        -1.0
      ],
      "translation": [
        -29.06,
        10.64,
        -33.6
      ],
      "name": "RG_Cloud-05 (6)"
    },
    {
      "mesh": 2,
      "rotation": [
        0.0,
        0.0,
        0.0,
        -1.0
      ],
      "translation": [
        -29.06,
        12.5,
        -2.7
      ],
      "name": "RG_Cloud-05 (7)"
    },
    {
      "mesh": 2,
      "rotation": [
        0.0,
        0.0,
        0.0,
        -1.0
      ],
      "translation": [
        -18.52,
        7.47,
        -38.17
      ],
      "name": "RG_Cloud-05 (8)"
    },
    {
      "mesh": 1,
      "rotation": [
        0.0,
        0.0,
        0.0,
        -1.0
      ],
      "translation": [
        -163.18,
        8.9,
        0.1
      ],
      "name": "RG_Cloud-03 (3)"
    },
    {
      "mesh": 1,
      "rotation": [
        0.0,
        0.0,
        0.0,
        -1.0
      ],
      "translation": [
        -114.16,
        19.06,
        34.02
      ],
      "name": "RG_Cloud-03 (4)"
    },
    {
      "mesh": 1,
      "rotation": [
        0.0,
        0.0,
        0.0,
        -1.0
      ],
      "translation": [
        -163.18,
        29.6,
        27.4
      ],
      "name": "RG_Cloud-03 (5)"
    },
    {
      "mesh": 1,
      "rotation": [
        0.0,
        0.0,
        0.0,
        -1.0
      ],
      "translation": [
        -130.59,
        21.23,
        74.4
      ],
      "name": "RG_Cloud-03 (6)"
    },
    {
      "mesh": 2,
      "rotation": [
        0.0,
        0.0,
        0.0,
        -1.0
      ],
      "translation": [
        -29.06,
        12.5,
        -20.9
      ],
      "name": "RG_Cloud-05 (9)"
    },
    {
      "mesh": 2,
      "rotation": [
        0.0,
        0.0,
        0.0,
        -1.0
      ],
      "translation": [
        -29.06,
        12.5,
        -20.9
      ],
      "name": "RG_Cloud-05 (10)"
    },
    {
      "children": [
        21,
        22,
        23,
        24,
        25,
        26,
        27,
        28,
        29,
        30,
        31,
        32,
        33,
        34,
        35,
        36,
        37,
        38
      ],
      "mesh": 0,
      "rotation": [
        1.545431E-08,
        0.7071068,
        1.545431E-08,
        -0.7071068
      ],
      "scale": [
        0.009999999,
        0.01,
        0.009999999
      ],
      "translation": [
        -0.448128551,
        0.395367265,
        -0.7043224
      ],
      "name": "RG_Cloud-01 (1)"
    },
    {
      "mesh": 1,
      "rotation": [
        0.0,
        0.0,
        0.0,
        -1.0
      ],
      "translation": [
        -9.12,
        -8.48,
        -16.22
      ],
      "name": "RG_Cloud-03"
    },
    {
      "mesh": 2,
      "rotation": [
        0.0,
        0.0,
        0.0,
        -1.0
      ],
      "translation": [
        -29.06,
        -2.0,
        -33.2699966
      ],
      "name": "RG_Cloud-05"
    },
    {
      "mesh": 1,
      "rotation": [
        0.0,
        0.0,
        0.0,
        -1.0
      ],
      "translation": [
        11.02,
        -7.7,
        -18.0
      ],
      "name": "RG_Cloud-03 (1)"
    },
    {
      "mesh": 2,
      "rotation": [
        0.0,
        0.0,
        0.0,
        -1.0
      ],
      "translation": [
        4.86,
        -10.12,
        5.08
      ],
      "name": "RG_Cloud-05 (1)"
    },
    {
      "mesh": 2,
      "rotation": [
        0.0,
        0.0,
        0.0,
        -1.0
      ],
      "translation": [
        -5.46,
        -10.12,
        -26.43
      ],
      "name": "RG_Cloud-05 (2)"
    },
    {
      "mesh": 2,
      "rotation": [
        0.0,
        0.0,
        0.0,
        -1.0
      ],
      "translation": [
        0.76,
        -10.12,
        -22.25
      ],
      "name": "RG_Cloud-05 (3)"
    },
    {
      "mesh": 2,
      "rotation": [
        0.0,
        0.0,
        0.0,
        -1.0
      ],
      "translation": [
        -7.74,
        -10.12,
        -22.25
      ],
      "name": "RG_Cloud-05 (4)"
    },
    {
      "mesh": 2,
      "rotation": [
        0.0,
        0.0,
        0.0,
        -1.0
      ],
      "translation": [
        4.2,
        -10.12,
        -6.79
      ],
      "name": "RG_Cloud-05 (5)"
    },
    {
      "mesh": 1,
      "rotation": [
        0.0,
        0.0,
        0.0,
        -1.0
      ],
      "translation": [
        -65.85,
        16.1,
        -18.0
      ],
      "name": "RG_Cloud-03 (2)"
    },
    {
      "mesh": 2,
      "rotation": [
        0.0,
        0.0,
        0.0,
        -1.0
      ],
      "translation": [
        -29.06,
        10.64,
        -33.6
      ],
      "name": "RG_Cloud-05 (6)"
    },
    {
      "mesh": 2,
      "rotation": [
        0.0,
        0.0,
        0.0,
        -1.0
      ],
      "translation": [
        -29.06,
        12.5,
        -2.7
      ],
      "name": "RG_Cloud-05 (7)"
    },
    {
      "mesh": 2,
      "rotation": [
        0.0,
        0.0,
        0.0,
        -1.0
      ],
      "translation": [
        -18.52,
        7.47,
        -38.17
      ],
      "name": "RG_Cloud-05 (8)"
    },
    {
      "mesh": 1,
      "rotation": [
        0.0,
        0.0,
        0.0,
        -1.0
      ],
      "translation": [
        -163.18,
        8.9,
        0.1
      ],
      "name": "RG_Cloud-03 (3)"
    },
    {
      "mesh": 1,
      "rotation": [
        0.0,
        0.0,
        0.0,
        -1.0
      ],
      "translation": [
        -114.16,
        19.06,
        34.02
      ],
      "name": "RG_Cloud-03 (4)"
    },
    {
      "mesh": 1,
      "rotation": [
        0.0,
        0.0,
        0.0,
        -1.0
      ],
      "translation": [
        -163.18,
        29.6,
        27.4
      ],
      "name": "RG_Cloud-03 (5)"
    },
    {
      "mesh": 1,
      "rotation": [
        0.0,
        0.0,
        0.0,
        -1.0
      ],
      "translation": [
        -130.59,
        21.23,
        74.4
      ],
      "name": "RG_Cloud-03 (6)"
    },
    {
      "mesh": 2,
      "rotation": [
        0.0,
        0.0,
        0.0,
        -1.0
      ],
      "translation": [
        -29.06,
        12.5,
        -20.9
      ],
      "name": "RG_Cloud-05 (9)"
    },
    {
      "mesh": 2,
      "rotation": [
        0.0,
        0.0,
        0.0,
        -1.0
      ],
      "translation": [
        -29.06,
        12.5,
        -20.9
      ],
      "name": "RG_Cloud-05 (10)"
    },
    {
      "children": [
        40,
        41,
        42,
        43,
        44,
        45,
        46,
        47,
        48,
        49,
        50,
        51,
        52,
        53,
        54,
        55,
        56,
        57,
        58,
        59
      ],
      "mesh": 0,
      "rotation": [
        1.545431E-08,
        0.7071068,
        1.545431E-08,
        -0.7071068
      ],
      "scale": [
        0.009999999,
        0.01,
        0.009999999
      ],
      "translation": [
        -0.03912832,
        0.246367276,
        -0.7043224
      ],
      "name": "RG_Cloud-01 (2)"
    },
    {
      "mesh": 1,
      "rotation": [
        0.0,
        0.0,
        0.0,
        -1.0
      ],
      "translation": [
        -9.12,
        -8.48,
        -16.22
      ],
      "name": "RG_Cloud-03"
    },
    {
      "mesh": 2,
      "rotation": [
        0.0,
        0.0,
        0.0,
        -1.0
      ],
      "translation": [
        -29.06,
        -2.0,
        -33.2699966
      ],
      "name": "RG_Cloud-05"
    },
    {
      "mesh": 1,
      "rotation": [
        0.0,
        0.0,
        0.0,
        -1.0
      ],
      "translation": [
        11.02,
        -7.7,
        -18.0
      ],
      "name": "RG_Cloud-03 (1)"
    },
    {
      "mesh": 2,
      "rotation": [
        0.0,
        0.0,
        0.0,
        -1.0
      ],
      "translation": [
        4.86,
        -10.12,
        5.08
      ],
      "name": "RG_Cloud-05 (1)"
    },
    {
      "mesh": 2,
      "rotation": [
        0.0,
        0.0,
        0.0,
        -1.0
      ],
      "translation": [
        -5.46,
        -10.12,
        -26.43
      ],
      "name": "RG_Cloud-05 (2)"
    },
    {
      "mesh": 2,
      "rotation": [
        0.0,
        0.0,
        0.0,
        -1.0
      ],
      "translation": [
        0.76,
        -10.12,
        -22.25
      ],
      "name": "RG_Cloud-05 (3)"
    },
    {
      "mesh": 2,
      "rotation": [
        0.0,
        0.0,
        0.0,
        -1.0
      ],
      "translation": [
        -7.74,
        -10.12,
        -22.25
      ],
      "name": "RG_Cloud-05 (4)"
    },
    {
      "mesh": 2,
      "rotation": [
        0.0,
        0.0,
        0.0,
        -1.0
      ],
      "translation": [
        4.2,
        -10.12,
        -6.79
      ],
      "name": "RG_Cloud-05 (5)"
    },
    {
      "mesh": 1,
      "rotation": [
        0.0,
        0.0,
        0.0,
        -1.0
      ],
      "translation": [
        -65.85,
        16.1,
        -18.0
      ],
      "name": "RG_Cloud-03 (2)"
    },
    {
      "mesh": 2,
      "rotation": [
        0.0,
        0.0,
        0.0,
        -1.0
      ],
      "translation": [
        -29.06,
        10.64,
        -33.6
      ],
      "name": "RG_Cloud-05 (6)"
    },
    {
      "mesh": 2,
      "rotation": [
        0.0,
        0.0,
        0.0,
        -1.0
      ],
      "translation": [
        -29.06,
        12.5,
        -2.7
      ],
      "name": "RG_Cloud-05 (7)"
    },
    {
      "mesh": 2,
      "rotation": [
        0.0,
        0.0,
        0.0,
        -1.0
      ],
      "translation": [
        -18.52,
        7.47,
        -38.17
      ],
      "name": "RG_Cloud-05 (8)"
    },
    {
      "mesh": 1,
      "rotation": [
        0.0,
        0.0,
        0.0,
        -1.0
      ],
      "translation": [
        -163.18,
        8.9,
        0.1
      ],
      "name": "RG_Cloud-03 (3)"
    },
    {
      "mesh": 1,
      "rotation": [
        0.0,
        0.0,
        0.0,
        -1.0
      ],
      "translation": [
        -114.16,
        19.06,
        34.02
      ],
      "name": "RG_Cloud-03 (4)"
    },
    {
      "mesh": 1,
      "rotation": [
        0.0,
        0.0,
        0.0,
        -1.0
      ],
      "translation": [
        -163.18,
        29.6,
        27.4
      ],
      "name": "RG_Cloud-03 (5)"
    },
    {
      "mesh": 1,
      "rotation": [
        0.0,
        0.0,
        0.0,
        -1.0
      ],
      "translation": [
        -130.59,
        21.23,
        74.4
      ],
      "name": "RG_Cloud-03 (6)"
    },
    {
      "mesh": 2,
      "rotation": [
        0.0,
        0.0,
        0.0,
        -1.0
      ],
      "translation": [
        -29.06,
        12.5,
        -20.9
      ],
      "name": "RG_Cloud-05 (9)"
    },
    {
      "mesh": 2,
      "rotation": [
        0.0,
        0.0,
        0.0,
        -1.0
      ],
      "translation": [
        -29.06,
        12.5,
        -20.9
      ],
      "name": "RG_Cloud-05 (10)"
    },
    {
      "mesh": 1,
      "rotation": [
        0.0,
        0.0,
        0.0,
        -1.0
      ],
      "translation": [
        11.02,
        -7.7,
        -25.0
      ],
      "name": "RG_Cloud-03 (7)"
    },
    {
      "mesh": 1,
      "rotation": [
        0.0,
        0.0,
        0.0,
        -1.0
      ],
      "translation": [
        21.3,
        -1.7,
        -38.4
      ],
      "name": "RG_Cloud-03 (8)"
    }
  ],
  "scene": 0,
  "scenes": [
    {
      "nodes": [
        0
      ],
      "name": "clouds"
    }
  ]
}