{
  "accessors": [
    {
      "bufferView": 0,
      "componentType": 5126,
      "count": 1982201,
      "type": "VEC3",
      "max": [
        5.9988422393798828,
        1.4577634334564209,
        5.3790378570556641
      ],
      "min": [
        -5.9988422393798828,
        -1.3570557832717896,
        -5.3790378570556641
      ]
    },
    {
      "bufferView": 1,
      "componentType": 5126,
      "count": 1982201,
      "type": "VEC3",
      "max": [
        1.0,
        1.0,
        0.99999988079071045
      ],
      "min": [
        -1.0,
        -1.0,
        -0.9999995231628418
      ]
    },
    {
      "bufferView": 2,
      "componentType": 5126,
      "count": 1982201,
      "type": "VEC4",
      "max": [
        1.0,
        0.99997806549072266,
        1.0,
        1.0
      ],
      "min": [
        -1.0,
        -0.98349791765213013,
        -1.0,
        -1.0
      ]
    },
    {
      "bufferView": 3,
      "componentType": 5126,
      "count": 1982201,
      "type": "VEC2",
      "max": [
        0.99853515625,
        0.97716444730758667
      ],
      "min": [
        0.0,
        0.0
      ]
    },
    {
      "bufferView": 4,
      "componentType": 5125,
      "count": 8550210,
      "type": "SCALAR",
      "max": [
        1982200.0
      ],
      "min": [
        0.0
      ]
    },
    {
      "bufferView": 5,
      "componentType": 5126,
      "count": 576,
      "type": "SCALAR",
      "max": [
        19.183305740356445
      ],
      "min": [
        0.0
      ]
    },
    {
      "bufferView": 6,
      "componentType": 5126,
      "count": 576,
      "type": "VEC3",
      "max": [
        0.0,
        121.0,
        0.0
      ],
      "min": [
        0.0,
        121.0,
        0.0
      ]
    },
    {
      "bufferView": 7,
      "componentType": 5126,
      "count": 576,
      "type": "VEC4",
      "max": [
        0.0,
        0.99999791383743286,
        0.0,
        1.0
      ],
      "min": [
        0.0,
        0.0,
        0.0,
        -1.0
      ]
    },
    {
      "bufferView": 8,
      "componentType": 5126,
      "count": 576,
      "type": "VEC3",
      "max": [
        500.0,
        500.0,
        500.0
      ],
      "min": [
        500.0,
        500.0,
        500.0
      ]
    },
    {
      "bufferView": 9,
      "componentType": 5126,
      "count": 1530,
      "type": "SCALAR",
      "max": [
        50.999980926513672
      ],
      "min": [
        0.0
      ]
    },
    {
      "bufferView": 10,
      "componentType": 5126,
      "count": 1530,
      "type": "VEC3",
      "max": [
        0.0,
        0.62192946672439575,
        2.0442240238189697
      ],
      "min": [
        0.0,
        -3.1873481930233538E-05,
        -0.20385317504405975
      ]
    },
    {
      "bufferView": 11,
      "componentType": 5126,
      "count": 1530,
      "type": "VEC4",
      "max": [
        0.80780965089797974,
        0.5894431471824646,
        0.58944296836853027,
        0.80780988931655884
      ],
      "min": [
        -0.44015499949455261,
        -0.5894431471824646,
        -0.32117253541946411,
        -0.80780988931655884
      ]
    },
    {
      "bufferView": 12,
      "componentType": 5126,
      "count": 1530,
      "type": "VEC3",
      "max": [
        0.035185527056455612,
        0.035185523331165314,
        0.035185527056455612
      ],
      "min": [
        0.035185527056455612,
        0.035185523331165314,
        0.035185527056455612
      ]
    }
  ],
  "animations": [
    {
      "channels": [
        {
          "sampler": 0,
          "target": {
            "node": 0,
            "path": "translation"
          }
        },
        {
          "sampler": 1,
          "target": {
            "node": 0,
            "path": "rotation"
          }
        },
        {
          "sampler": 2,
          "target": {
            "node": 0,
            "path": "scale"
          }
        }
      ],
      "samplers": [
        {
          "input": 5,
          "output": 6
        },
        {
          "input": 5,
          "output": 7
        },
        {
          "input": 5,
          "output": 8
        }
      ],
      "name": "animated3dmodel"
    },
    {
      "channels": [
        {
          "sampler": 0,
          "target": {
            "node": 2,
            "path": "translation"
          }
        },
        {
          "sampler": 1,
          "target": {
            "node": 2,
            "path": "rotation"
          }
        },
        {
          "sampler": 2,
          "target": {
            "node": 2,
            "path": "scale"
          }
        }
      ],
      "samplers": [
        {
          "input": 9,
          "output": 10
        },
        {
          "input": 9,
          "output": 11
        },
        {
          "input": 9,
          "output": 12
        }
      ],
      "name": "OLdPavillionNewScale Variant"
    }
  ],
  "asset": {
    "generator": "Plattar UnityGLTF (2020.3.19f1)",
    "version": "2.0"
  },
  "buffers": [
    {
      "uri": "animated3dmodel.bin",
      "byteLength": 129439152
    }
  ],
  "bufferViews": [
    {
      "buffer": 0,
      "byteLength": 23786412
    },
    {
      "buffer": 0,
      "byteOffset": 23786412,
      "byteLength": 23786412
    },
    {
      "buffer": 0,
      "byteOffset": 47572824,
      "byteLength": 31715216
    },
    {
      "buffer": 0,
      "byteOffset": 79288040,
      "byteLength": 15857608
    },
    {
      "buffer": 0,
      "byteOffset": 95145648,
      "byteLength": 34200840
    },
    {
      "buffer": 0,
      "byteOffset": 129346488,
      "byteLength": 2304
    },
    {
      "buffer": 0,
      "byteOffset": 129348792,
      "byteLength": 6912
    },
    {
      "buffer": 0,
      "byteOffset": 129355704,
      "byteLength": 9216
    },
    {
      "buffer": 0,
      "byteOffset": 129364920,
      "byteLength": 6912
    },
    {
      "buffer": 0,
      "byteOffset": 129371832,
      "byteLength": 6120
    },
    {
      "buffer": 0,
      "byteOffset": 129377952,
      "byteLength": 18360
    },
    {
      "buffer": 0,
      "byteOffset": 129396312,
      "byteLength": 24480
    },
    {
      "buffer": 0,
      "byteOffset": 129420792,
      "byteLength": 18360
    }
  ],
  "materials": [
    {
      "pbrMetallicRoughness": {
        "metallicFactor": 0.0,
        "roughnessFactor": 0.0
      },
      "name": "Pavillion"
    }
  ],
  "meshes": [
    {
      "primitives": [
        {
          "attributes": {
            "POSITION": 0,
            "NORMAL": 1,
            "TANGENT": 2,
            "TEXCOORD_0": 3
          },
          "indices": 4,
          "material": 0
        }
      ],
      "name": "default"
    }
  ],
  "nodes": [
    {
      "children": [
        1
      ],
      "rotation": [
        0.0,
        0.0,
        0.0,
        -1.0
      ],
      "translation": [
        0.0,
        0.242000014,
        0.0
      ],
      "name": "animated3dmodel"
    },
    {
      "children": [
        2
      ],
      "rotation": [
        0.0,
        0.0,
        0.0,
        -1.0
      ],
      "translation": [
        0.0,
        0.05,
        0.0
      ],
      "name": "Parent2"
    },
    {
      "children": [
        3,
        4
      ],
      "rotation": [
        0.0,
        -0.589445055,
        0.0,
        -0.807808459
      ],
      "scale": [
        0.0351855271,
        0.0351855233,
        0.0351855271
      ],
      "translation": [
        0.0,
        -0.05,
        0.0
      ],
      "name": "OLdPavillionNewScale Variant"
    },
    {
      "mesh": 0,
      "rotation": [
        0.0,
        0.0,
        0.0,
        -1.0
      ],
      "name": "default"
    },
    {
      "rotation": [
        0.0,
        0.589445055,
        0.0,
        -0.807808459
      ],
      "scale": [
        28.4207764,
        28.42078,
        28.4207764
      ],
      "translation": [
        131.408371,
        -37.3655548,
        252.504211
      ],
      "name": "GameObject"
    }
  ],
  "scene": 0,
  "scenes": [
    {
      "nodes": [
        0
      ],
      "name": "animated3dmodel"
    }
  ]
}